korean_heart coordinate motion generated from LLM joint_angles
version=1
nRows=44
nColumns=29
inDegrees=yes
endheader
time	elbow_flexion	pro_sup	rotaxis_auxprfem_r3	deviation	auxprrud_auxdrfem_r3	auxdrfem_auxdrrud_r1	MCP2_lateral	MCP2_flex	PIP_flex	DIP_flex	MCP2M_lateral	MCP2M_flex	MPIP_flex	MDIP_flex	RCP2M_lateral	RCP2M_flex	RPIP_flex	RDIP_flex	LCP2M_lateral	LCP2M_flex	LPIP_flex	LDIP_flex	thumb_abd	thumb_flex	TCP2M_lateral	TCP2M_flex	TCP2M2_flex	flexion
0.333333	0.000000	0.000000	0.000000	0.000000	0.000000	0.000000	0.000000	0.000000	0.000000	0.000000	0.000000	0.000000	0.000000	0.000000	0.000000	77.942286	77.942286	77.942286	0.000000	77.942286	77.942286	77.942286	38.971143	38.971143	0.000000	38.971143	38.971143	0.000000
0.340000	0.000000	0.000000	0.000000	0.000000	0.000000	0.000000	0.000000	0.000000	0.000000	0.000000	0.000000	0.000000	0.000000	0.000000	0.000000	78.867601	78.867601	78.867601	0.000000	78.867601	78.867601	78.867601	39.433801	39.433801	0.000000	39.433801	39.433801	0.000000
0.346667	0.000000	0.000000	0.000000	0.000000	0.000000	0.000000	0.000000	0.000000	0.000000	0.000000	0.000000	0.000000	0.000000	0.000000	0.000000	79.758322	79.758322	79.758322	0.000000	79.758322	79.758322	79.758322	39.879161	39.879161	0.000000	39.879161	39.879161	0.000000
0.353333	0.000000	0.000000	0.000000	0.000000	0.000000	0.000000	0.000000	0.000000	0.000000	0.000000	0.000000	0.000000	0.000000	0.000000	0.000000	80.614058	80.614058	80.614058	0.000000	80.614058	80.614058	80.614058	40.307029	40.307029	0.000000	40.307029	40.307029	0.000000
0.360000	0.000000	0.000000	0.000000	0.000000	0.000000	0.000000	0.000000	0.000000	0.000000	0.000000	0.000000	0.000000	0.000000	0.000000	0.000000	81.434435	81.434435	81.434435	0.000000	81.434435	81.434435	81.434435	40.717217	40.717217	0.000000	40.717217	40.717217	0.000000
0.366667	0.000000	0.000000	0.000000	0.000000	0.000000	0.000000	0.000000	0.000000	0.000000	0.000000	0.000000	0.000000	0.000000	0.000000	0.000000	82.219091	82.219091	82.219091	0.000000	82.219091	82.219091	82.219091	41.109546	41.109546	0.000000	41.109546	41.109546	0.000000
0.373333	0.000000	0.000000	0.000000	0.000000	0.000000	0.000000	0.000000	0.000000	0.000000	0.000000	0.000000	0.000000	0.000000	0.000000	0.000000	82.967684	82.967684	82.967684	0.000000	82.967684	82.967684	82.967684	41.483842	41.483842	0.000000	41.483842	41.483842	0.000000
0.380000	0.000000	0.000000	0.000000	0.000000	0.000000	0.000000	0.000000	0.000000	0.000000	0.000000	0.000000	0.000000	0.000000	0.000000	0.000000	83.679884	83.679884	83.679884	0.000000	83.679884	83.679884	83.679884	41.839942	41.839942	0.000000	41.839942	41.839942	0.000000
0.386667	0.000000	0.000000	0.000000	0.000000	0.000000	0.000000	0.000000	0.000000	0.000000	0.000000	0.000000	0.000000	0.000000	0.000000	0.000000	84.355379	84.355379	84.355379	0.000000	84.355379	84.355379	84.355379	42.177690	42.177690	0.000000	42.177690	42.177690	0.000000
0.393333	0.000000	0.000000	0.000000	0.000000	0.000000	0.000000	0.000000	0.000000	0.000000	0.000000	0.000000	0.000000	0.000000	0.000000	0.000000	84.993873	84.993873	84.993873	0.000000	84.993873	84.993873	84.993873	42.496937	42.496937	0.000000	42.496937	42.496937	0.000000
0.400000	0.000000	0.000000	0.000000	0.000000	0.000000	0.000000	0.000000	0.000000	0.000000	0.000000	0.000000	0.000000	0.000000	0.000000	0.000000	85.595086	85.595086	85.595086	0.000000	85.595086	85.595086	85.595086	42.797543	42.797543	0.000000	42.797543	42.797543	0.000000
0.406667	0.000000	0.000000	0.000000	0.000000	0.000000	0.000000	0.000000	0.000000	0.000000	0.000000	0.000000	0.000000	0.000000	0.000000	0.000000	86.158755	86.158755	86.158755	0.000000	86.158755	86.158755	86.158755	43.079377	43.079377	0.000000	43.079377	43.079377	0.000000
0.413333	0.000000	0.000000	0.000000	0.000000	0.000000	0.000000	0.000000	0.000000	0.000000	0.000000	0.000000	0.000000	0.000000	0.000000	0.000000	86.684631	86.684631	86.684631	0.000000	86.684631	86.684631	86.684631	43.342316	43.342316	0.000000	43.342316	43.342316	0.000000
0.420000	0.000000	0.000000	0.000000	0.000000	0.000000	0.000000	0.000000	0.000000	0.000000	0.000000	0.000000	0.000000	0.000000	0.000000	0.000000	87.172485	87.172485	87.172485	0.000000	87.172485	87.172485	87.172485	43.586242	43.586242	0.000000	43.586242	43.586242	0.000000
0.426667	0.000000	0.000000	0.000000	0.000000	0.000000	0.000000	0.000000	0.000000	0.000000	0.000000	0.000000	0.000000	0.000000	0.000000	0.000000	87.622101	87.622101	87.622101	0.000000	87.622101	87.622101	87.622101	43.811051	43.811051	0.000000	43.811051	43.811051	0.000000
0.433333	0.000000	0.000000	0.000000	0.000000	0.000000	0.000000	0.000000	0.000000	0.000000	0.000000	0.000000	0.000000	0.000000	0.000000	0.000000	88.033284	88.033284	88.033284	0.000000	88.033284	88.033284	88.033284	44.016642	44.016642	0.000000	44.016642	44.016642	0.000000
0.440000	0.000000	0.000000	0.000000	0.000000	0.000000	0.000000	0.000000	0.000000	0.000000	0.000000	0.000000	0.000000	0.000000	0.000000	0.000000	88.405853	88.405853	88.405853	0.000000	88.405853	88.405853	88.405853	44.202926	44.202926	0.000000	44.202926	44.202926	0.000000
0.446667	0.000000	0.000000	0.000000	0.000000	0.000000	0.000000	0.000000	0.000000	0.000000	0.000000	0.000000	0.000000	0.000000	0.000000	0.000000	88.739643	88.739643	88.739643	0.000000	88.739643	88.739643	88.739643	44.369822	44.369822	0.000000	44.369822	44.369822	0.000000
0.453333	0.000000	0.000000	0.000000	0.000000	0.000000	0.000000	0.000000	0.000000	0.000000	0.000000	0.000000	0.000000	0.000000	0.000000	0.000000	89.034510	89.034510	89.034510	0.000000	89.034510	89.034510	89.034510	44.517255	44.517255	0.000000	44.517255	44.517255	0.000000
0.460000	0.000000	0.000000	0.000000	0.000000	0.000000	0.000000	0.000000	0.000000	0.000000	0.000000	0.000000	0.000000	0.000000	0.000000	0.000000	89.290323	89.290323	89.290323	0.000000	89.290323	89.290323	89.290323	44.645162	44.645162	0.000000	44.645162	44.645162	0.000000
0.466667	0.000000	0.000000	0.000000	0.000000	0.000000	0.000000	0.000000	0.000000	0.000000	0.000000	0.000000	0.000000	0.000000	0.000000	0.000000	89.506971	89.506971	89.506971	0.000000	89.506971	89.506971	89.506971	44.753485	44.753485	0.000000	44.753485	44.753485	0.000000
0.473333	0.000000	0.000000	0.000000	0.000000	0.000000	0.000000	0.000000	0.000000	0.000000	0.000000	0.000000	0.000000	0.000000	0.000000	0.000000	89.684357	89.684357	89.684357	0.000000	89.684357	89.684357	89.684357	44.842179	44.842179	0.000000	44.842179	44.842179	0.000000
0.480000	0.000000	0.000000	0.000000	0.000000	0.000000	0.000000	0.000000	0.000000	0.000000	0.000000	0.000000	0.000000	0.000000	0.000000	0.000000	89.822406	89.822406	89.822406	0.000000	89.822406	89.822406	89.822406	44.911203	44.911203	0.000000	44.911203	44.911203	0.000000
0.486667	0.000000	0.000000	0.000000	0.000000	0.000000	0.000000	0.000000	0.000000	0.000000	0.000000	0.000000	0.000000	0.000000	0.000000	0.000000	89.921055	89.921055	89.921055	0.000000	89.921055	89.921055	89.921055	44.960527	44.960527	0.000000	44.960527	44.960527	0.000000
0.493333	0.000000	0.000000	0.000000	0.000000	0.000000	0.000000	0.000000	0.000000	0.000000	0.000000	0.000000	0.000000	0.000000	0.000000	0.000000	89.980262	89.980262	89.980262	0.000000	89.980262	89.980262	89.980262	44.990131	44.990131	0.000000	44.990131	44.990131	0.000000
0.500000	0.000000	0.000000	0.000000	0.000000	0.000000	0.000000	0.000000	0.000000	0.000000	0.000000	0.000000	0.000000	0.000000	0.000000	0.000000	90.000000	90.000000	90.000000	0.000000	90.000000	90.000000	90.000000	45.000000	45.000000	0.000000	45.000000	45.000000	0.000000
0.506667	0.000000	0.000000	0.000000	0.000000	0.000000	0.000000	0.000000	0.000000	0.000000	0.000000	0.000000	0.000000	0.000000	0.000000	0.000000	89.980262	89.980262	89.980262	0.000000	89.980262	89.980262	89.980262	44.990131	44.990131	0.000000	44.990131	44.990131	0.000000
0.513333	0.000000	0.000000	0.000000	0.000000	0.000000	0.000000	0.000000	0.000000	0.000000	0.000000	0.000000	0.000000	0.000000	0.000000	0.000000	89.921055	89.921055	89.921055	0.000000	89.921055	89.921055	89.921055	44.960527	44.960527	0.000000	44.960527	44.960527	0.000000
0.520000	0.000000	0.000000	0.000000	0.000000	0.000000	0.000000	0.000000	0.000000	0.000000	0.000000	0.000000	0.000000	0.000000	0.000000	0.000000	89.822406	89.822406	89.822406	0.000000	89.822406	89.822406	89.822406	44.911203	44.911203	0.000000	44.911203	44.911203	0.000000
0.526667	0.000000	0.000000	0.000000	0.000000	0.000000	0.000000	0.000000	0.000000	0.000000	0.000000	0.000000	0.000000	0.000000	0.000000	0.000000	89.684357	89.684357	89.684357	0.000000	89.684357	89.684357	89.684357	44.842179	44.842179	0.000000	44.842179	44.842179	0.000000
0.533333	0.000000	0.000000	0.000000	0.000000	0.000000	0.000000	0.000000	0.000000	0.000000	0.000000	0.000000	0.000000	0.000000	0.000000	0.000000	89.506971	89.506971	89.506971	0.000000	89.506971	89.506971	89.506971	44.753485	44.753485	0.000000	44.753485	44.753485	0.000000
0.540000	0.000000	0.000000	0.000000	0.000000	0.000000	0.000000	0.000000	0.000000	0.000000	0.000000	0.000000	0.000000	0.000000	0.000000	0.000000	89.290323	89.290323	89.290323	0.000000	89.290323	89.290323	89.290323	44.645162	44.645162	0.000000	44.645162	44.645162	0.000000
0.546667	0.000000	0.000000	0.000000	0.000000	0.000000	0.000000	0.000000	0.000000	0.000000	0.000000	0.000000	0.000000	0.000000	0.000000	0.000000	89.034510	89.034510	89.034510	0.000000	89.034510	89.034510	89.034510	44.517255	44.517255	0.000000	44.517255	44.517255	0.000000
0.553333	0.000000	0.000000	0.000000	0.000000	0.000000	0.000000	0.000000	0.000000	0.000000	0.000000	0.000000	0.000000	0.000000	0.000000	0.000000	88.739643	88.739643	88.739643	0.000000	88.739643	88.739643	88.739643	44.369822	44.369822	0.000000	44.369822	44.369822	0.000000
0.560000	0.000000	0.000000	0.000000	0.000000	0.000000	0.000000	0.000000	0.000000	0.000000	0.000000	0.000000	0.000000	0.000000	0.000000	0.000000	88.405853	88.405853	88.405853	0.000000	88.405853	88.405853	88.405853	44.202926	44.202926	0.000000	44.202926	44.202926	0.000000
0.566667	0.000000	0.000000	0.000000	0.000000	0.000000	0.000000	0.000000	0.000000	0.000000	0.000000	0.000000	0.000000	0.000000	0.000000	0.000000	88.033284	88.033284	88.033284	0.000000	88.033284	88.033284	88.033284	44.016642	44.016642	0.000000	44.016642	44.016642	0.000000
0.573333	0.000000	0.000000	0.000000	0.000000	0.000000	0.000000	0.000000	0.000000	0.000000	0.000000	0.000000	0.000000	0.000000	0.000000	0.000000	87.622101	87.622101	87.622101	0.000000	87.622101	87.622101	87.622101	43.811051	43.811051	0.000000	43.811051	43.811051	0.000000
0.580000	0.000000	0.000000	0.000000	0.000000	0.000000	0.000000	0.000000	0.000000	0.000000	0.000000	0.000000	0.000000	0.000000	0.000000	0.000000	87.172485	87.172485	87.172485	0.000000	87.172485	87.172485	87.172485	43.586242	43.586242	0.000000	43.586242	43.586242	0.000000
0.586667	0.000000	0.000000	0.000000	0.000000	0.000000	0.000000	0.000000	0.000000	0.000000	0.000000	0.000000	0.000000	0.000000	0.000000	0.000000	86.684631	86.684631	86.684631	0.000000	86.684631	86.684631	86.684631	43.342316	43.342316	0.000000	43.342316	43.342316	0.000000
0.593333	0.000000	0.000000	0.000000	0.000000	0.000000	0.000000	0.000000	0.000000	0.000000	0.000000	0.000000	0.000000	0.000000	0.000000	0.000000	86.158755	86.158755	86.158755	0.000000	86.158755	86.158755	86.158755	43.079377	43.079377	0.000000	43.079377	43.079377	0.000000
0.600000	0.000000	0.000000	0.000000	0.000000	0.000000	0.000000	0.000000	0.000000	0.000000	0.000000	0.000000	0.000000	0.000000	0.000000	0.000000	85.595086	85.595086	85.595086	0.000000	85.595086	85.595086	85.595086	42.797543	42.797543	0.000000	42.797543	42.797543	0.000000
0.606667	0.000000	0.000000	0.000000	0.000000	0.000000	0.000000	0.000000	0.000000	0.000000	0.000000	0.000000	0.000000	0.000000	0.000000	0.000000	84.993873	84.993873	84.993873	0.000000	84.993873	84.993873	84.993873	42.496937	42.496937	0.000000	42.496937	42.496937	0.000000
0.613333	0.000000	0.000000	0.000000	0.000000	0.000000	0.000000	0.000000	0.000000	0.000000	0.000000	0.000000	0.000000	0.000000	0.000000	0.000000	84.355379	84.355379	84.355379	0.000000	84.355379	84.355379	84.355379	42.177690	42.177690	0.000000	42.177690	42.177690	0.000000
0.620000	0.000000	0.000000	0.000000	0.000000	0.000000	0.000000	0.000000	0.000000	0.000000	0.000000	0.000000	0.000000	0.000000	0.000000	0.000000	83.679884	83.679884	83.679884	0.000000	83.679884	83.679884	83.679884	41.839942	41.839942	0.000000	41.839942	41.839942	0.000000
